<svg width="401" height="79" viewBox="0 0 401 79" fill="none" xmlns="http://www.w3.org/2000/svg">
<path d="M0.836 59.5L8.284 6.3H18.772L12.806 49.012H34.238L32.756 59.5H0.836ZM52.5303 60.488C49.0343 60.488 45.9689 59.5887 43.3343 57.79C40.7249 55.9913 38.7743 53.572 37.4823 50.532C36.2156 47.492 35.8356 44.1353 36.3423 40.462C36.7223 37.7007 37.5709 35.1167 38.8883 32.71C40.2309 30.278 41.9029 28.15 43.9043 26.326C45.9056 24.4767 48.1223 23.0327 50.5543 21.994C53.0116 20.9553 55.5449 20.436 58.1543 20.436C61.1689 20.436 63.8289 21.082 66.1343 22.374C68.4396 23.666 70.3016 25.4267 71.7203 27.656C73.1643 29.8853 74.0509 32.406 74.3803 35.218C74.7349 38.03 74.4563 40.956 73.5443 43.996H47.1723C47.3496 45.1107 47.7169 46.124 48.2743 47.036C48.8569 47.9227 49.6169 48.632 50.5543 49.164C51.5169 49.696 52.6696 49.9747 54.0123 50C55.3296 50.0253 56.5836 49.7213 57.7743 49.088C58.9903 48.4547 60.0669 47.606 61.0043 46.542L71.3403 49.012C69.3389 52.3813 66.6536 55.1427 63.2843 57.296C59.9149 59.424 56.3303 60.488 52.5303 60.488ZM47.8563 36.244H64.0443C63.8923 34.9773 63.4869 33.8373 62.8283 32.824C62.1696 31.8107 61.3336 31.0127 60.3203 30.43C59.3069 29.8473 58.1669 29.556 56.9003 29.556C55.6336 29.556 54.4049 29.8473 53.2143 30.43C52.0489 31.0127 50.9976 31.8107 50.0603 32.824C49.1483 33.812 48.4136 34.952 47.8563 36.244ZM108.375 21.5H118.863L113.467 60.032C113.062 62.844 112.125 65.3773 110.655 67.632C109.211 69.912 107.387 71.8627 105.183 73.484C102.979 75.1053 100.547 76.3467 97.8874 77.208C95.2274 78.0693 92.4787 78.5 89.6414 78.5C86.9561 78.5 84.4607 77.968 82.1554 76.904C79.8754 75.8653 77.9121 74.4213 76.2654 72.572C74.6187 70.7227 73.4281 68.5947 72.6934 66.188L82.8774 61.818C83.2321 63.0847 83.8147 64.174 84.6254 65.086C85.4361 65.998 86.3987 66.6947 87.5134 67.176C88.6534 67.6827 89.8694 67.936 91.1614 67.936C92.5294 67.936 93.8721 67.7713 95.1894 67.442C96.5321 67.1127 97.7481 66.6187 98.8374 65.96C99.9521 65.3013 100.864 64.478 101.573 63.49C102.308 62.502 102.777 61.3493 102.979 60.032L103.587 55.624C102.219 57.068 100.636 58.246 98.8374 59.158C97.0641 60.0447 95.0881 60.488 92.9094 60.488C90.1734 60.488 87.6781 59.9687 85.4234 58.93C83.1687 57.8913 81.2561 56.46 79.6854 54.636C78.1401 52.7867 77.0127 50.6587 76.3034 48.252C75.6194 45.8453 75.4674 43.2613 75.8474 40.5C76.2274 37.7387 77.1014 35.1547 78.4694 32.748C79.8627 30.3413 81.5981 28.226 83.6754 26.402C85.7527 24.5527 88.0581 23.1087 90.5914 22.07C93.1501 21.0313 95.7974 20.512 98.5334 20.512C100.712 20.512 102.561 20.968 104.081 21.88C105.627 22.7667 106.881 23.932 107.843 25.376L108.375 21.5ZM94.4674 50.418C96.1901 50.418 97.7987 49.9747 99.2934 49.088C100.813 48.176 102.08 46.9727 103.093 45.478C104.132 43.9833 104.778 42.324 105.031 40.5C105.285 38.676 105.107 37.0167 104.499 35.522C103.917 34.002 102.992 32.7987 101.725 31.912C100.459 31.0253 98.9641 30.582 97.2414 30.582C95.5441 30.582 93.9227 31.0253 92.3774 31.912C90.8574 32.7987 89.5781 34.002 88.5394 35.522C87.5007 37.0167 86.8547 38.676 86.6014 40.5C86.3481 42.324 86.5254 43.996 87.1334 45.516C87.7667 47.0107 88.7167 48.2013 89.9834 49.088C91.2754 49.9747 92.7701 50.418 94.4674 50.418ZM124.671 21.5H135.159L129.839 59.5H119.351L124.671 21.5ZM130.637 17.13C129.092 17.13 127.876 16.6233 126.989 15.61C126.103 14.5967 125.761 13.3427 125.963 11.848C126.166 10.3533 126.85 9.09933 128.015 8.086C129.206 7.07267 130.561 6.566 132.081 6.566C133.551 6.566 134.729 7.07267 135.615 8.086C136.502 9.09933 136.844 10.3533 136.641 11.848C136.413 13.3427 135.729 14.5967 134.589 15.61C133.449 16.6233 132.132 17.13 130.637 17.13ZM146.867 60.184C144.942 60.032 143.13 59.6267 141.433 58.968C139.736 58.284 138.254 57.372 136.987 56.232C135.746 55.0667 134.846 53.6733 134.289 52.052L143.637 48.252C143.865 48.6573 144.22 49.1007 144.701 49.582C145.182 50.038 145.803 50.4433 146.563 50.798C147.348 51.1527 148.26 51.33 149.299 51.33C150.084 51.33 150.857 51.2413 151.617 51.064C152.377 50.8613 153.01 50.5447 153.517 50.114C154.049 49.658 154.366 49.0627 154.467 48.328C154.594 47.5173 154.391 46.8967 153.859 46.466C153.327 46.0353 152.668 45.7187 151.883 45.516C151.098 45.288 150.325 45.098 149.565 44.946C147.31 44.5407 145.22 43.8187 143.295 42.78C141.395 41.716 139.913 40.348 138.849 38.676C137.785 37.004 137.418 35.0027 137.747 32.672C138.127 30.1133 139.102 27.9093 140.673 26.06C142.269 24.1853 144.22 22.7413 146.525 21.728C148.83 20.7147 151.237 20.208 153.745 20.208C156.709 20.208 159.356 20.8287 161.687 22.07C164.043 23.3113 165.854 25.0593 167.121 27.314L158.153 32.216C157.874 31.7347 157.507 31.2787 157.051 30.848C156.595 30.392 156.05 30.012 155.417 29.708C154.809 29.3787 154.125 29.1887 153.365 29.138C152.377 29.062 151.465 29.1253 150.629 29.328C149.793 29.5053 149.109 29.8473 148.577 30.354C148.045 30.8607 147.716 31.5447 147.589 32.406C147.462 33.242 147.728 33.8627 148.387 34.268C149.071 34.648 149.882 34.9393 150.819 35.142C151.782 35.3193 152.618 35.5347 153.327 35.788C155.43 36.4973 157.368 37.4093 159.141 38.524C160.914 39.6133 162.282 40.956 163.245 42.552C164.233 44.148 164.537 46.0227 164.157 48.176C163.802 50.684 162.738 52.888 160.965 54.788C159.217 56.6627 157.089 58.094 154.581 59.082C152.073 60.0447 149.502 60.412 146.867 60.184Z" fill="#421C00"/>
<path d="M181.354 30.396C181.696 29.5971 181.782 29.0549 181.61 28.7696C181.496 28.4272 181.297 28.256 181.011 28.256C180.726 28.256 180.298 28.5413 179.727 29.112C179.157 29.6256 178.557 30.2819 177.93 31.0808C177.302 31.8227 176.674 32.6216 176.046 33.4776C175.419 34.3336 174.877 35.0755 174.42 35.7032L171.938 33.9912C172.851 32.5645 173.878 31.0808 175.019 29.54C176.161 27.9421 177.387 26.5155 178.7 25.26C180.07 23.9475 181.468 22.8917 182.894 22.0928C184.378 21.2368 185.947 20.8088 187.602 20.8088C189.942 20.8088 191.112 21.9501 191.112 24.2328C191.112 24.8035 190.969 25.5168 190.684 26.3728C190.456 27.1717 190.142 28.0563 189.742 29.0264C189.4 29.9965 188.972 31.0237 188.458 32.108C188.002 33.1352 187.545 34.1339 187.089 35.104L187.517 35.3608C188.658 33.8771 189.885 32.2792 191.198 30.5672C192.567 28.8552 193.994 27.2859 195.478 25.8592C197.018 24.3755 198.588 23.1771 200.186 22.264C201.783 21.2939 203.438 20.8088 205.15 20.8088C206.977 20.8088 208.318 21.1797 209.174 21.9216C210.087 22.6635 210.543 23.8619 210.543 25.5168C210.543 26.7152 210.201 28.256 209.516 30.1392C208.888 31.9653 208.061 33.8771 207.034 35.8744L207.547 36.0456C208.917 34.0483 210.258 32.1365 211.57 30.3104C212.94 28.4272 214.338 26.8008 215.765 25.4312C217.191 24.0045 218.647 22.8917 220.13 22.0928C221.671 21.2368 223.269 20.8088 224.924 20.8088C226.636 20.8088 228.063 21.2939 229.204 22.264C230.345 23.2341 230.916 24.5467 230.916 26.2016C230.916 28.1419 230.431 30.1677 229.461 32.2792L220.473 51.8816C219.959 53.1371 220.045 53.7648 220.73 53.7648C221.015 53.7648 221.443 53.5651 222.014 53.1656C222.641 52.7091 223.326 52.1669 224.068 51.5392C224.81 50.8544 225.552 50.1411 226.294 49.3992C227.035 48.6003 227.692 47.8584 228.262 47.1736L230.659 48.9712C229.86 49.9984 228.862 51.1397 227.663 52.3952C226.522 53.6507 225.209 54.8205 223.726 55.9048C222.299 56.9891 220.73 57.9021 219.018 58.644C217.363 59.3859 215.622 59.7568 213.796 59.7568C212.027 59.7568 210.886 59.3288 210.372 58.4728C209.858 57.6168 209.602 56.6467 209.602 55.5624C209.602 54.8776 209.687 54.1643 209.858 53.4224C210.087 52.6235 210.429 51.7389 210.886 50.7688L220.473 29.7968C220.872 28.9408 220.986 28.2845 220.815 27.828C220.701 27.3144 220.387 27.0576 219.874 27.0576C219.417 27.0576 218.761 27.4285 217.905 28.1704C217.049 28.9123 216.079 29.9109 214.994 31.1664C213.967 32.3648 212.854 33.7629 211.656 35.3608C210.515 36.9587 209.373 38.5851 208.232 40.24C207.091 41.8949 206.006 43.5213 204.979 45.1192C204.009 46.7171 203.182 48.1723 202.497 49.4848L197.275 59.5H188.202L201.555 29.7968C201.841 29.112 201.898 28.4843 201.726 27.9136C201.612 27.3429 201.241 27.0576 200.614 27.0576C200.043 27.0576 199.301 27.4285 198.388 28.1704C197.475 28.8552 196.505 29.7968 195.478 30.9952C194.45 32.1365 193.366 33.4491 192.225 34.9328C191.141 36.3595 190.085 37.8432 189.058 39.384C188.03 40.9248 187.089 42.4085 186.233 43.8352C185.377 45.2619 184.692 46.5173 184.178 47.6016L178.358 59.5H168.856L181.354 30.396ZM265.888 25.9448C265.489 25.4883 265.032 25.1173 264.519 24.832C264.062 24.5467 263.491 24.404 262.807 24.404C261.608 24.404 260.324 24.9176 258.955 25.9448C257.585 26.9149 256.215 28.2275 254.846 29.8824C253.476 31.4803 252.164 33.3064 250.908 35.3608C249.71 37.3581 248.626 39.384 247.655 41.4384C246.685 43.4928 245.915 45.4616 245.344 47.3448C244.774 49.228 244.488 50.8259 244.488 52.1384C244.488 54.1357 245.145 55.1344 246.457 55.1344C247.541 55.1344 248.683 54.5923 249.881 53.508C251.137 52.4237 252.363 51.0827 253.562 49.4848C254.76 47.8299 255.902 46.0323 256.986 44.092C258.07 42.0947 259.04 40.1829 259.896 38.3568L265.888 25.9448ZM258.184 48.8856C255.217 52.9944 252.421 55.9333 249.795 57.7024C247.17 59.4144 244.717 60.2704 242.434 60.2704C239.695 60.2704 237.64 59.7283 236.271 58.644C234.958 57.5027 234.302 55.6765 234.302 53.1656C234.302 50.9971 234.644 48.6859 235.329 46.232C236.014 43.7781 236.984 41.3528 238.239 38.956C239.495 36.5592 240.979 34.2765 242.691 32.108C244.403 29.8824 246.286 27.9421 248.34 26.2872C250.395 24.6323 252.563 23.3197 254.846 22.3496C257.186 21.3224 259.582 20.8088 262.036 20.8088C263.577 20.8088 264.69 21.0371 265.375 21.4936C266.117 21.9501 266.801 22.4923 267.429 23.12L268.285 21.4936H277.958L265.546 49.8272C265.032 51.0256 264.747 51.8816 264.69 52.3952C264.633 52.9088 264.918 53.1656 265.546 53.1656C266.117 53.1656 266.973 52.7661 268.114 51.9672C269.312 51.1683 270.939 49.656 272.993 47.4304L275.047 49.3136C274.249 50.3979 273.307 51.5677 272.223 52.8232C271.195 54.0216 270.026 55.1629 268.713 56.2472C267.401 57.2744 266.002 58.1304 264.519 58.8152C263.092 59.5 261.608 59.8424 260.067 59.8424C258.698 59.8424 257.642 59.5856 256.9 59.072C256.158 58.5584 255.787 57.7024 255.787 56.504C255.787 55.648 256.044 54.5637 256.558 53.2512C257.129 51.9387 257.785 50.5691 258.527 49.1424L258.184 48.8856ZM295.129 39.812C297.412 39.5837 299.609 39.0987 301.721 38.3568C303.832 37.5579 305.687 36.6163 307.285 35.532C308.94 34.4477 310.252 33.2779 311.222 32.0224C312.192 30.7099 312.677 29.3973 312.677 28.0848C312.677 27.3429 312.449 26.8293 311.993 26.544C311.593 26.2016 311.108 26.0304 310.537 26.0304C309.282 26.0304 307.884 26.5725 306.343 27.6568C304.859 28.684 303.376 29.9395 301.892 31.4232C300.465 32.8499 299.153 34.3621 297.954 35.96C296.756 37.5008 295.814 38.7848 295.129 39.812ZM299.324 6.5992C299.666 5.80027 299.752 5.20106 299.581 4.8016C299.409 4.40213 299.096 4.14533 298.639 4.0312L294.958 3.3464L295.9 0.5216H310.709L311.137 1.4632L297.269 31.5088L297.697 31.68C300.836 27.5712 303.775 24.7464 306.514 23.2056C309.31 21.6077 312.135 20.8088 314.989 20.8088C319.839 20.8088 322.265 22.8347 322.265 26.8864C322.265 29.112 321.58 31.0808 320.21 32.7928C318.898 34.4477 317.214 35.8744 315.16 37.0728C313.162 38.2712 310.994 39.2699 308.654 40.0688C306.314 40.8107 304.117 41.3528 302.063 41.6952L304.717 49.4848C305.173 50.7973 305.63 51.6819 306.086 52.1384C306.543 52.5949 307.028 52.8232 307.541 52.8232C307.941 52.8232 308.483 52.6805 309.168 52.3952C309.853 52.1099 310.566 51.7389 311.308 51.2824C312.05 50.7688 312.792 50.2267 313.533 49.656C314.275 49.0283 314.96 48.372 315.588 47.6872L317.813 49.656C317.129 50.5691 316.216 51.6248 315.074 52.8232C313.933 53.9645 312.677 55.0488 311.308 56.076C309.938 57.1032 308.483 57.9592 306.942 58.644C305.458 59.3288 304.003 59.6712 302.577 59.6712C300.693 59.6712 299.352 59.1291 298.553 58.0448C297.754 56.9035 296.984 55.2485 296.242 53.08L293.417 44.7768L287.254 59.5H277.239L299.324 6.5992ZM349.159 49.3136C348.189 50.6261 347.105 51.9387 345.906 53.2512C344.765 54.5067 343.424 55.6765 341.883 56.7608C340.399 57.788 338.744 58.644 336.918 59.3288C335.149 59.9565 333.152 60.2704 330.926 60.2704C329.043 60.2704 327.474 60.0421 326.218 59.5856C324.963 59.1291 323.936 58.5013 323.137 57.7024C322.395 56.9035 321.853 55.9619 321.51 54.8776C321.225 53.7933 321.082 52.6235 321.082 51.368C321.082 47.6587 321.767 43.9779 323.137 40.3256C324.563 36.6733 326.475 33.4205 328.872 30.5672C331.269 27.6568 334.036 25.3171 337.175 23.548C340.371 21.7219 343.738 20.8088 347.276 20.8088C350.357 20.8088 352.583 21.408 353.953 22.6064C355.379 23.8048 356.093 25.4597 356.093 27.5712C356.093 29.5685 355.493 31.4803 354.295 33.3064C353.154 35.1325 351.527 36.816 349.416 38.3568C347.361 39.8405 344.879 41.1531 341.969 42.2944C339.115 43.4357 335.948 44.3488 332.467 45.0336C332.239 45.7755 332.01 46.7741 331.782 48.0296C331.554 49.228 331.44 50.512 331.44 51.8816C331.44 53.0229 331.611 53.936 331.953 54.6208C332.353 55.2485 333.095 55.5624 334.179 55.5624C335.606 55.5624 337.261 54.9632 339.144 53.7648C341.084 52.5664 343.452 50.3693 346.249 47.1736L349.159 49.3136ZM333.494 40.8392C336.005 40.1544 338.174 39.2699 340 38.1856C341.883 37.1013 343.424 35.9315 344.622 34.676C345.878 33.3635 346.791 32.0224 347.361 30.6528C347.989 29.2261 348.303 27.8565 348.303 26.544C348.303 25.6309 348.103 25.0317 347.704 24.7464C347.361 24.404 346.933 24.2328 346.42 24.2328C344.594 24.2328 342.482 25.688 340.085 28.5984C337.689 31.5088 335.492 35.5891 333.494 40.8392ZM368.604 30.396C368.946 29.5971 369.032 29.0549 368.86 28.7696C368.746 28.4272 368.547 28.256 368.261 28.256C367.976 28.256 367.548 28.5413 366.977 29.112C366.407 29.6256 365.807 30.2819 365.18 31.0808C364.552 31.8227 363.924 32.6216 363.296 33.4776C362.669 34.3336 362.127 35.0755 361.67 35.7032L359.188 33.9912C360.101 32.5645 361.128 31.0808 362.269 29.54C363.411 27.9421 364.637 26.5155 365.95 25.26C367.32 23.9475 368.718 22.8917 370.144 22.0928C371.628 21.2368 373.197 20.8088 374.852 20.8088C377.192 20.8088 378.362 21.9501 378.362 24.2328C378.362 24.8035 378.248 25.4883 378.02 26.2872C377.791 27.0861 377.477 27.9707 377.078 28.9408C376.736 29.8539 376.308 30.824 375.794 31.8512C375.337 32.8784 374.881 33.8771 374.424 34.8472L374.852 35.104C376.051 33.2779 377.221 31.5088 378.362 29.7968C379.503 28.0848 380.702 26.5725 381.957 25.26C383.27 23.8904 384.639 22.8061 386.066 22.0072C387.493 21.2083 389.062 20.8088 390.774 20.8088C392.943 20.8088 394.683 21.3795 395.996 22.5208C397.308 23.6051 397.964 25.1459 397.964 27.1432C397.964 28.7411 397.479 30.0821 396.509 31.1664C395.596 32.1936 394.312 32.7072 392.657 32.7072C390.831 32.7072 389.604 32.3077 388.976 31.5088C388.406 30.6528 388.12 29.7112 388.12 28.684C388.12 27.8851 388.206 27.1717 388.377 26.544C388.605 25.9163 388.377 25.6024 387.692 25.6024C386.722 25.6024 385.524 26.3728 384.097 27.9136C382.671 29.3973 381.187 31.2805 379.646 33.5632C378.105 35.8459 376.564 38.2997 375.024 40.9248C373.54 43.5499 372.256 45.9752 371.172 48.2008L365.608 59.5H356.106L368.604 30.396Z" fill="#421C00"/>
<path d="M8.52447 65.9635C8.67415 65.5029 9.32585 65.5029 9.47553 65.9635L10.4593 68.9914C10.5263 69.1974 10.7183 69.3369 10.9349 69.3369H14.1186C14.6029 69.3369 14.8043 69.9567 14.4124 70.2414L11.8368 72.1127C11.6615 72.24 11.5882 72.4657 11.6552 72.6717L12.639 75.6996C12.7886 76.1602 12.2614 76.5433 11.8695 76.2586L9.29389 74.3873C9.11865 74.26 8.88135 74.26 8.70611 74.3873L6.13045 76.2586C5.73859 76.5433 5.21136 76.1602 5.36103 75.6996L6.34484 72.6717C6.41178 72.4657 6.33845 72.24 6.16321 72.1127L3.58755 70.2414C3.1957 69.9567 3.39708 69.3369 3.88145 69.3369H7.06513C7.28174 69.3369 7.47372 69.1974 7.54066 68.9914L8.52447 65.9635Z" fill="#421C00"/>
<path d="M32.5245 65.9635C32.6741 65.5029 33.3259 65.5029 33.4755 65.9635L34.4593 68.9914C34.5263 69.1974 34.7183 69.3369 34.9349 69.3369H38.1186C38.6029 69.3369 38.8043 69.9567 38.4124 70.2414L35.8368 72.1127C35.6615 72.24 35.5882 72.4657 35.6552 72.6717L36.639 75.6996C36.7886 76.1602 36.2614 76.5433 35.8695 76.2586L33.2939 74.3873C33.1186 74.26 32.8814 74.26 32.7061 74.3873L30.1305 76.2586C29.7386 76.5433 29.2114 76.1602 29.361 75.6996L30.3448 72.6717C30.4118 72.4657 30.3385 72.24 30.1632 72.1127L27.5876 70.2414C27.1957 69.9567 27.3971 69.3369 27.8814 69.3369H31.0651C31.2817 69.3369 31.4737 69.1974 31.5407 68.9914L32.5245 65.9635Z" fill="#421C00"/>
<path d="M56.5245 65.9635C56.6741 65.5029 57.3259 65.5029 57.4755 65.9635L58.4593 68.9914C58.5263 69.1974 58.7183 69.3369 58.9349 69.3369H62.1186C62.6029 69.3369 62.8043 69.9567 62.4124 70.2414L59.8368 72.1127C59.6615 72.24 59.5882 72.4657 59.6552 72.6717L60.639 75.6996C60.7886 76.1602 60.2614 76.5433 59.8695 76.2586L57.2939 74.3873C57.1186 74.26 56.8814 74.26 56.7061 74.3873L54.1305 76.2586C53.7386 76.5433 53.2114 76.1602 53.361 75.6996L54.3448 72.6717C54.4118 72.4657 54.3385 72.24 54.1632 72.1127L51.5876 70.2414C51.1957 69.9567 51.3971 69.3369 51.8814 69.3369H55.0651C55.2817 69.3369 55.4737 69.1974 55.5407 68.9914L56.5245 65.9635Z" fill="#421C00"/>
<rect x="122" y="66" width="275" height="10" rx="5" fill="#A9612E"/>
<rect x="122" y="66" width="275" height="10" rx="5" fill="url(#paint0_linear_10_108)" fill-opacity="0.5"/>
<defs>
<linearGradient id="paint0_linear_10_108" x1="122" y1="71" x2="397" y2="71" gradientUnits="userSpaceOnUse">
<stop stop-color="#421C00"/>
<stop offset="1" stop-color="#A9612E"/>
</linearGradient>
</defs>
</svg>
